  0
SECTION
  2
HEADER
  9
$ACADVER
  1
AC1009
  9
$DWGCODEPAGE
  3
ansi_1251
  9
$INSBASE
 10
0.0
 20
0.0
 30
0.0
  9
$EXTMIN
 10
0.0
 20
0.0
 30
0.0
  9
$EXTMAX
 10
0.0
 20
0.0
 30
0.0
  9
$LIMMIN
 10
0.0
 20
0.0
  9
$LIMMAX
 10
12.0
 20
9.0
  9
$ORTHOMODE
 70
     0
  9
$REGENMODE
 70
     1
  9
$FILLMODE
 70
     1
  9
$QTEXTMODE
 70
     0
  9
$MIRRTEXT
 70
     1
  9
$DRAGMODE
 70
     2
  9
$LTSCALE
 40
1.0
  9
$OSMODE
 70
    37
  9
$ATTMODE
 70
     1
  9
$TEXTSIZE
 40
250.0
  9
$TRACEWID
 40
0.05
  9
$TEXTSTYLE
  7
STANDARD
  9
$CLAYER
  8
0
  9
$CELTYPE
  6
BYBLOCK
  9
$CECOLOR
 62
   256
  9
$DIMSCALE
 40
100.0
  9
$DIMASZ
 40
0.18
  9
$DIMEXO
 40
0.0625
  9
$DIMDLI
 40
0.38
  9
$DIMRND
 40
0.0
  9
$DIMDLE
 40
0.0
  9
$DIMEXE
 40
0.18
  9
$DIMTP
 40
0.0
  9
$DIMTM
 40
0.0
  9
$DIMTXT
 40
0.18
  9
$DIMCEN
 40
0.09
  9
$DIMTSZ
 40
0.0
  9
$DIMTOL
 70
     0
  9
$DIMLIM
 70
     0
  9
$DIMTIH
 70
     1
  9
$DIMTOH
 70
     1
  9
$DIMSE1
 70
     0
  9
$DIMSE2
 70
     0
  9
$DIMTAD
 70
     0
  9
$DIMZIN
 70
     0
  9
$DIMBLK
  1

  9
$DIMASO
 70
     1
  9
$DIMSHO
 70
     1
  9
$DIMPOST
  1

  9
$DIMAPOST
  1

  9
$DIMALT
 70
     0
  9
$DIMALTD
 70
     2
  9
$DIMALTF
 40
25.4
  9
$DIMLFAC
 40
1.0
  9
$DIMTOFL
 70
     0
  9
$DIMTVP
 40
0.0
  9
$DIMTIX
 70
     0
  9
$DIMSOXD
 70
     0
  9
$DIMSAH
 70
     0
  9
$DIMBLK1
  1

  9
$DIMBLK2
  1

  9
$DIMSTYLE
  2
STANDARD
  9
$DIMCLRD
 70
     0
  9
$DIMCLRE
 70
     0
  9
$DIMCLRT
 70
     0
  9
$DIMTFAC
 40
1.0
  9
$DIMGAP
 40
0.09
  9
$LUNITS
 70
     2
  9
$LUPREC
 70
     4
  9
$SKETCHINC
 40
0.1
  9
$FILLETRAD
 40
0.5
  9
$AUNITS
 70
     0
  9
$AUPREC
 70
     0
  9
$MENU
  1
.
  9
$ELEVATION
 40
0.0
  9
$PELEVATION
 40
0.0
  9
$THICKNESS
 40
0.0
  9
$LIMCHECK
 70
     0
  9
$CHAMFERA
 40
0.0
  9
$CHAMFERB
 40
0.0
  9
$SKPOLY
 70
     0
  9
$TDCREATE
 40
2458102.532862361
  9
$TDUPDATE
 40
2458102.565735706
  9
$TDINDWG
 40
0.0000000116
  9
$TDUSRTIMER
 40
0.0000000116
  9
$USRTIMER
 70
     1
  9
$ANGBASE
 50
0.0
  9
$ANGDIR
 70
     0
  9
$PDMODE
 70
     0
  9
$PDSIZE
 40
0.0
  9
$PLINEWID
 40
0.0
  9
$COORDS
 70
     1
  9
$SPLFRAME
 70
     0
  9
$SPLINETYPE
 70
     6
  9
$SPLINESEGS
 70
     8
  9
$ATTDIA
 70
     0
  9
$ATTREQ
 70
     1
  9
$HANDLING
 70
     1
  9
$HANDSEED
  5
3B4
  9
$SURFTAB1
 70
     6
  9
$SURFTAB2
 70
     6
  9
$SURFTYPE
 70
     6
  9
$SURFU
 70
     6
  9
$SURFV
 70
     6
  9
$UCSNAME
  2

  9
$UCSORG
 10
0.0
 20
0.0
 30
0.0
  9
$UCSXDIR
 10
1.0
 20
0.0
 30
0.0
  9
$UCSYDIR
 10
0.0
 20
1.0
 30
0.0
  9
$PUCSNAME
  2

  9
$PUCSORG
 10
0.0
 20
0.0
 30
0.0
  9
$PUCSXDIR
 10
1.0
 20
0.0
 30
0.0
  9
$PUCSYDIR
 10
0.0
 20
1.0
 30
0.0
  9
$USERI1
 70
     0
  9
$USERI2
 70
     0
  9
$USERI3
 70
     0
  9
$USERI4
 70
     0
  9
$USERI5
 70
     0
  9
$USERR1
 40
0.0
  9
$USERR2
 40
0.0
  9
$USERR3
 40
0.0
  9
$USERR4
 40
0.0
  9
$USERR5
 40
0.0
  9
$WORLDVIEW
 70
     1
  9
$SHADEDGE
 70
     3
  9
$SHADEDIF
 70
    70
  9
$TILEMODE
 70
     1
  9
$MAXACTVP
 70
    64
  9
$PLIMCHECK
 70
     0
  9
$PEXTMIN
 10
1.000000E+20
 20
1.000000E+20
 30
1.000000E+20
  9
$PEXTMAX
 10
-1.000000E+20
 20
-1.000000E+20
 30
-1.000000E+20
  9
$PLIMMIN
 10
0.0
 20
0.0
  9
$PLIMMAX
 10
12.0
 20
9.0
  9
$UNITMODE
 70
     0
  9
$VISRETAIN
 70
     1
  9
$PLINEGEN
 70
     0
  9
$PSLTSCALE
 70
     0
  0
ENDSEC
  0
SECTION
  2
TABLES
  0
TABLE
  2
VPORT
 70
     1
  0
VPORT
  2
*ACTIVE
 70
     0
 10
0.0
 20
0.0
 11
1.0
 21
1.0
 12
103.687597
 22
54.62198
 13
0.0
 23
0.0
 14
0.5
 24
0.5
 15
0.5
 25
0.5
 16
0.0
 26
0.0
 36
1.0
 17
0.0
 27
0.0
 37
0.0
 40
153.773438
 41
2.107649
 42
50.0
 43
0.0
 44
0.0
 50
0.0
 51
0.0
 71
    16
 72
   100
 73
     1
 74
     3
 75
     0
 76
     0
 77
     0
 78
     0
  0
ENDTAB
  0
TABLE
  2
LTYPE
 70
     1
  0
LTYPE
  2
CONTINUOUS
 70
     0
  3
Solid line
 72
    65
 73
     0
 40
0.0
  0
ENDTAB
  0
TABLE
  2
LAYER
 70
     1
  0
LAYER
  2
0
 70
     0
 62
     7
  6
CONTINUOUS
  0
ENDTAB
  0
TABLE
  2
STYLE
 70
     1
  0
STYLE
  2
STANDARD
 70
     0
 40
0.0
 41
1.0
 50
0.0
 71
     0
 42
250.0
  3
ARIAL.TTF
  4

  0
ENDTAB
  0
TABLE
  2
VIEW
 70
     0
  0
ENDTAB
  0
TABLE
  2
UCS
 70
     0
  0
ENDTAB
  0
TABLE
  2
APPID
 70
     6
  0
APPID
  2
ACAD
 70
     0
  0
APPID
  2
MCS_DIM1
 70
     0
  0
APPID
  2
MCSXDATA5
 70
     0
  0
APPID
  2
MCS_DOCUMENT_ID
 70
     0
  0
APPID
  2
MCS_PARAMS_DATA
 70
     0
  0
APPID
  2
MC_VERSION_DATA
 70
     0
  0
ENDTAB
  0
TABLE
  2
DIMSTYLE
 70
     1
  0
DIMSTYLE
  2
STANDARD
 70
     0
  3

  4

  5

  6

  7

 40
1.0
 41
0.18
 42
0.0625
 43
0.38
 44
0.18
 45
0.0
 46
0.0
 47
0.0
 48
0.0
140
0.18
141
0.09
142
0.0
143
25.4
144
1.0
145
0.0
146
1.0
147
0.09
 71
     0
 72
     0
 73
     1
 74
     1
 75
     0
 76
     0
 77
     0
 78
     0
170
     0
171
     2
172
     0
173
     0
174
     0
175
     0
176
     0
177
     0
178
     0
  0
ENDTAB
  0
ENDSEC
  0
SECTION
  2
BLOCKS
  0
BLOCK
  8
0
  2
$MODEL_SPACE
 70
     0
 10
0.0
 20
0.0
 30
0.0
  3
$MODEL_SPACE
  1

  0
ENDBLK
  5
116
  8
0
  0
BLOCK
 67
     1
  8
0
  2
$PAPER_SPACE
 70
     0
 10
0.0
 20
0.0
 30
0.0
  3
$PAPER_SPACE
  1

  0
ENDBLK
  5
118
 67
     1
  8
0
  0
BLOCK
  8
0
  2
SHAPE2DVIEW001
 70
     0
 10
0.0
 20
0.0
 30
0.0
  3
SHAPE2DVIEW001
  1

  0
POLYLINE
  5
2A
  8
0
 62
     0
 66
     1
 10
0.0
 20
0.0
 30
0.0
  0
VERTEX
  5
342
  8
0
 62
     0
 10
11.149998
 20
87.5
 30
0.0
  0
VERTEX
  5
343
  8
0
 62
     0
 10
10.099998
 20
88.55
 30
0.0
  0
SEQEND
  5
391
  8
0
 62
     0
  0
POLYLINE
  5
2E
  8
0
 62
     0
 66
     1
 10
0.0
 20
0.0
 30
0.0
  0
VERTEX
  5
344
  8
0
 62
     0
 10
9.049998
 20
87.5
 30
0.0
  0
VERTEX
  5
345
  8
0
 62
     0
 10
11.149998
 20
87.5
 30
0.0
  0
SEQEND
  5
392
  8
0
 62
     0
  0
POLYLINE
  5
32
  8
0
 62
     0
 66
     1
 10
0.0
 20
0.0
 30
0.0
  0
VERTEX
  5
346
  8
0
 62
     0
 10
10.099998
 20
88.55
 30
0.0
  0
VERTEX
  5
347
  8
0
 62
     0
 10
9.049998
 20
87.5
 30
0.0
  0
SEQEND
  5
393
  8
0
 62
     0
  0
POLYLINE
  5
36
  8
0
 62
     0
 66
     1
 10
0.0
 20
0.0
 30
0.0
  0
VERTEX
  5
348
  8
0
 62
     0
 10
8.099998
 20
87.5
 30
0.0
  0
VERTEX
  5
349
  8
0
 62
     0
 10
11.099998
 20
85.767949
 30
0.0
  0
VERTEX
  5
34A
  8
0
 62
     0
 10
11.099998
 20
89.232051
 30
0.0
  0
VERTEX
  5
34B
  8
0
 62
     0
 10
8.099998
 20
87.5
 30
0.0
  0
SEQEND
  5
394
  8
0
 62
     0
  0
POLYLINE
  5
3C
  8
0
 62
     0
 66
     1
 10
0.0
 20
0.0
 30
0.0
  0
VERTEX
  5
34C
  8
0
 62
     0
 10
3.999998
 20
78.9
 30
0.0
  0
VERTEX
  5
34D
  8
0
 62
     0
 10
3.999998
 20
79.9
 30
0.0
  0
SEQEND
  5
395
  8
0
 62
     0
  0
LINE
  5
40
  8
0
 62
     0
 10
3.999998
 20
89.0
 30
0.0
 11
3.999998
 21
79.9
 31
0.0
  0
POLYLINE
  5
41
  8
0
 62
     0
 66
     1
 10
0.0
 20
0.0
 30
0.0
  0
VERTEX
  5
34E
  8
0
 62
     0
 10
3.999998
 20
89.0
 30
0.0
  0
VERTEX
  5
34F
  8
0
 62
     0
 10
3.999998
 20
90.0
 30
0.0
  0
SEQEND
  5
396
  8
0
 62
     0
  0
LINE
  5
45
  8
0
 62
     0
 10
3.999998
 20
90.0
 30
0.0
 11
5.699998
 21
90.0
 31
0.0
  0
LINE
  5
46
  8
0
 62
     0
 10
5.699998
 20
90.0
 30
0.0
 11
11.599998
 21
90.0
 31
0.0
  0
LINE
  5
47
  8
0
 62
     0
 10
5.699997
 20
90.0
 30
0.0
 11
4.199997
 21
90.0
 31
0.0
  0
LINE
  5
48
  8
0
 62
     0
 10
3.999997
 20
90.0
 30
0.0
 11
3.999998
 21
90.0
 31
0.0
  0
POLYLINE
  5
49
  8
0
 62
     0
 66
     1
 10
0.0
 20
0.0
 30
0.0
  0
VERTEX
  5
350
  8
0
 62
     0
 10
6.299998
 20
89.0
 30
0.0
  0
VERTEX
  5
351
  8
0
 62
     0
 10
6.299998
 20
89.994987
 30
0.0
  0
SEQEND
  5
397
  8
0
 62
     0
  0
LINE
  5
4D
  8
0
 62
     0
 10
6.299998
 20
89.994987
 30
0.0
 11
5.699998
 21
89.994987
 31
0.0
  0
POLYLINE
  5
4E
  8
0
 62
     0
 66
     1
 10
0.0
 20
0.0
 30
0.0
  0
VERTEX
  5
352
  8
0
 62
     0
 10
5.699998
 20
89.994987
 30
0.0
  0
VERTEX
  5
353
  8
0
 62
     0
 10
5.699998
 20
90.0
 30
0.0
  0
SEQEND
  5
398
  8
0
 62
     0
  0
LINE
  5
52
  8
0
 62
     0
 10
6.299998
 20
79.9
 30
0.0
 11
6.299998
 21
89.0
 31
0.0
  0
POLYLINE
  5
53
  8
0
 62
     0
 66
     1
 10
0.0
 20
0.0
 30
0.0
  0
VERTEX
  5
354
  8
0
 62
     0
 10
6.299998
 20
78.905013
 30
0.0
  0
VERTEX
  5
355
  8
0
 62
     0
 10
6.299998
 20
79.9
 30
0.0
  0
SEQEND
  5
399
  8
0
 62
     0
  0
POLYLINE
  5
57
  8
0
 62
     0
 66
     1
 10
0.0
 20
0.0
 30
0.0
  0
VERTEX
  5
356
  8
0
 62
     0
 10
5.699998
 20
78.9
 30
0.0
  0
VERTEX
  5
357
  8
0
 62
     0
 10
5.699998
 20
78.905013
 30
0.0
  0
SEQEND
  5
39A
  8
0
 62
     0
  0
LINE
  5
5B
  8
0
 62
     0
 10
5.699998
 20
78.905013
 30
0.0
 11
6.299998
 21
78.905013
 31
0.0
  0
LINE
  5
5C
  8
0
 62
     0
 10
5.699998
 20
78.9
 30
0.0
 11
3.999998
 21
78.9
 31
0.0
  0
LINE
  5
5D
  8
0
 62
     0
 10
5.699998
 20
90.0
 30
0.0
 11
5.699998
 21
89.994987
 31
0.0
  0
LINE
  5
5E
  8
0
 62
     0
 10
5.699998
 20
78.905013
 30
0.0
 11
5.699998
 21
78.9
 31
0.0
  0
LINE
  5
5F
  8
0
 62
     0
 10
3.999998
 20
78.9
 30
0.0
 11
3.999997
 21
78.9
 31
0.0
  0
LINE
  5
60
  8
0
 62
     0
 10
8.499998
 20
78.9
 30
0.0
 11
5.699998
 21
78.9
 31
0.0
  0
LINE
  5
61
  8
0
 62
     0
 10
3.999997
 20
78.9
 30
0.0
 11
3.999997
 21
90.0
 31
0.0
  0
POLYLINE
  5
62
  8
0
 62
     0
 66
     1
 10
0.0
 20
0.0
 30
0.0
  0
VERTEX
  5
358
  8
0
 62
     0
 10
3.999997
 20
90.0
 30
0.0
  0
VERTEX
  5
359
  8
0
 62
     0
 10
3.999997
 20
89.0
 30
0.0
  0
SEQEND
  5
39B
  8
0
 62
     0
  0
POLYLINE
  5
66
  8
0
 62
     0
 66
     1
 10
0.0
 20
0.0
 30
0.0
  0
VERTEX
  5
35A
  8
0
 62
     0
 10
3.999997
 20
79.9
 30
0.0
  0
VERTEX
  5
35B
  8
0
 62
     0
 10
3.999997
 20
78.9
 30
0.0
  0
SEQEND
  5
39C
  8
0
 62
     0
  0
POLYLINE
  5
6A
  8
0
 62
     0
 66
     1
 10
0.0
 20
0.0
 30
0.0
  0
VERTEX
  5
35C
  8
0
 62
     0
 10
5.699997
 20
78.905013
 30
0.0
  0
VERTEX
  5
35D
  8
0
 62
     0
 10
5.699997
 20
78.9
 30
0.0
  0
SEQEND
  5
39D
  8
0
 62
     0
  0
POLYLINE
  5
6E
  8
0
 62
     0
 66
     1
 10
0.0
 20
0.0
 30
0.0
  0
VERTEX
  5
35E
  8
0
 62
     0
 10
8.999998
 20
79.4
 30
0.0
  0
VERTEX
  5
35F
  8
0
 62
     0
 10
8.499998
 20
78.9
 30
0.0
  0
SEQEND
  5
39E
  8
0
 62
     0
  0
LINE
  5
72
  8
0
 62
     0
 10
8.999998
 20
85.0
 30
0.0
 11
8.999998
 21
79.4
 31
0.0
  0
LINE
  5
73
  8
0
 62
     0
 10
11.599998
 20
85.0
 30
0.0
 11
8.999998
 21
85.0
 31
0.0
  0
POLYLINE
  5
74
  8
0
 62
     0
 66
     1
 10
0.0
 20
0.0
 30
0.0
  0
VERTEX
  5
360
  8
0
 62
     0
 10
12.599998
 20
86.0
 30
0.0
  0
VERTEX
  5
361
  8
0
 62
     0
 10
11.599998
 20
85.0
 30
0.0
  0
SEQEND
  5
39F
  8
0
 62
     0
  0
LINE
  5
78
  8
0
 62
     0
 10
12.599998
 20
89.0
 30
0.0
 11
12.599998
 21
86.0
 31
0.0
  0
POLYLINE
  5
79
  8
0
 62
     0
 66
     1
 10
0.0
 20
0.0
 30
0.0
  0
VERTEX
  5
362
  8
0
 62
     0
 10
11.599998
 20
90.0
 30
0.0
  0
VERTEX
  5
363
  8
0
 62
     0
 10
12.599998
 20
89.0
 30
0.0
  0
SEQEND
  5
3A0
  8
0
 62
     0
  0
POLYLINE
  5
7D
  8
0
 62
     0
 66
     1
 10
0.0
 20
0.0
 30
0.0
  0
VERTEX
  5
364
  8
0
 62
     0
 10
9.049998
 20
87.5
 30
0.0
  0
VERTEX
  5
365
  8
0
 62
     0
 10
8.099998
 20
87.5
 30
0.0
  0
SEQEND
  5
3A1
  8
0
 62
     0
  0
LINE
  5
81
  8
0
 62
     0
 10
6.299998
 20
89.0
 30
0.0
 11
3.999998
 21
89.0
 31
0.0
  0
LINE
  5
82
  8
0
 62
     0
 10
3.999998
 20
79.9
 30
0.0
 11
6.299998
 21
79.9
 31
0.0
  0
ENDBLK
  5
83
  8
0
  0
BLOCK
  8
0
  2
SHAPE2DVIEW002
 70
     0
 10
0.0
 20
0.0
 30
0.0
  3
SHAPE2DVIEW002
  1

  0
POLYLINE
  5
86
  8
0
 62
     0
 66
     1
 10
0.0
 20
0.0
 30
0.0
  0
VERTEX
  5
366
  8
0
 62
     0
 10
10.099998
 20
16.45
 30
0.0
  0
VERTEX
  5
367
  8
0
 62
     0
 10
11.149998
 20
17.5
 30
0.0
  0
SEQEND
  5
3A2
  8
0
 62
     0
  0
POLYLINE
  5
8A
  8
0
 62
     0
 66
     1
 10
0.0
 20
0.0
 30
0.0
  0
VERTEX
  5
368
  8
0
 62
     0
 10
12.099998
 20
17.5
 30
0.0
  0
VERTEX
  5
369
  8
0
 62
     0
 10
9.099998
 20
19.232051
 30
0.0
  0
VERTEX
  5
36A
  8
0
 62
     0
 10
9.099998
 20
15.767949
 30
0.0
  0
VERTEX
  5
36B
  8
0
 62
     0
 10
12.099998
 20
17.5
 30
0.0
  0
SEQEND
  5
3A3
  8
0
 62
     0
  0
POLYLINE
  5
90
  8
0
 62
     0
 66
     1
 10
0.0
 20
0.0
 30
0.0
  0
VERTEX
  5
36C
  8
0
 62
     0
 10
11.149998
 20
17.5
 30
0.0
  0
VERTEX
  5
36D
  8
0
 62
     0
 10
10.099998
 20
16.45
 30
0.0
  0
SEQEND
  5
3A4
  8
0
 62
     0
  0
LINE
  5
94
  8
0
 62
     0
 10
3.999997
 20
15.0
 30
0.0
 11
3.999997
 21
26.1
 31
0.0
  0
POLYLINE
  5
95
  8
0
 62
     0
 66
     1
 10
0.0
 20
0.0
 30
0.0
  0
VERTEX
  5
36E
  8
0
 62
     0
 10
3.999997
 20
26.1
 30
0.0
  0
VERTEX
  5
36F
  8
0
 62
     0
 10
3.999997
 20
25.1
 30
0.0
  0
SEQEND
  5
3A5
  8
0
 62
     0
  0
POLYLINE
  5
99
  8
0
 62
     0
 66
     1
 10
0.0
 20
0.0
 30
0.0
  0
VERTEX
  5
370
  8
0
 62
     0
 10
3.999997
 20
16.0
 30
0.0
  0
VERTEX
  5
371
  8
0
 62
     0
 10
3.999997
 20
15.0
 30
0.0
  0
SEQEND
  5
3A6
  8
0
 62
     0
  0
LINE
  5
9D
  8
0
 62
     0
 10
3.999998
 20
15.0
 30
0.0
 11
3.999997
 21
15.0
 31
0.0
  0
LINE
  5
9E
  8
0
 62
     0
 10
3.999997
 20
26.1
 30
0.0
 11
3.999998
 21
26.1
 31
0.0
  0
LINE
  5
9F
  8
0
 62
     0
 10
3.999997
 20
15.0
 30
0.0
 11
3.999998
 21
15.0
 31
0.0
  0
LINE
  5
A0
  8
0
 62
     0
 10
11.599998
 20
15.0
 30
0.0
 11
5.699998
 21
15.0
 31
0.0
  0
LINE
  5
A1
  8
0
 62
     0
 10
5.699998
 20
15.0
 30
0.0
 11
3.999998
 21
15.0
 31
0.0
  0
POLYLINE
  5
A2
  8
0
 62
     0
 66
     1
 10
0.0
 20
0.0
 30
0.0
  0
VERTEX
  5
372
  8
0
 62
     0
 10
5.699997
 20
26.1
 30
0.0
  0
VERTEX
  5
373
  8
0
 62
     0
 10
5.699997
 20
26.09995
 30
0.0
  0
SEQEND
  5
3A7
  8
0
 62
     0
  0
LINE
  5
A6
  8
0
 62
     0
 10
3.999998
 20
26.1
 30
0.0
 11
5.699998
 21
26.1
 31
0.0
  0
LINE
  5
A7
  8
0
 62
     0
 10
5.699998
 20
26.1
 30
0.0
 11
8.499998
 21
26.1
 31
0.0
  0
POLYLINE
  5
A8
  8
0
 62
     0
 66
     1
 10
0.0
 20
0.0
 30
0.0
  0
VERTEX
  5
374
  8
0
 62
     0
 10
3.999998
 20
15.0
 30
0.0
  0
VERTEX
  5
375
  8
0
 62
     0
 10
3.999998
 20
16.0
 30
0.0
  0
SEQEND
  5
3A8
  8
0
 62
     0
  0
LINE
  5
AC
  8
0
 62
     0
 10
3.999998
 20
25.1
 30
0.0
 11
3.999998
 21
16.0
 31
0.0
  0
POLYLINE
  5
AD
  8
0
 62
     0
 66
     1
 10
0.0
 20
0.0
 30
0.0
  0
VERTEX
  5
376
  8
0
 62
     0
 10
3.999998
 20
25.1
 30
0.0
  0
VERTEX
  5
377
  8
0
 62
     0
 10
3.999998
 20
26.1
 30
0.0
  0
SEQEND
  5
3A9
  8
0
 62
     0
  0
POLYLINE
  5
B1
  8
0
 62
     0
 66
     1
 10
0.0
 20
0.0
 30
0.0
  0
VERTEX
  5
378
  8
0
 62
     0
 10
5.699998
 20
15.0
 30
0.0
  0
VERTEX
  5
379
  8
0
 62
     0
 10
5.699998
 20
15.005013
 30
0.0
  0
SEQEND
  5
3AA
  8
0
 62
     0
  0
LINE
  5
B5
  8
0
 62
     0
 10
5.699998
 20
15.005013
 30
0.0
 11
6.299998
 21
15.005013
 31
0.0
  0
POLYLINE
  5
B6
  8
0
 62
     0
 66
     1
 10
0.0
 20
0.0
 30
0.0
  0
VERTEX
  5
37A
  8
0
 62
     0
 10
6.299998
 20
15.005013
 30
0.0
  0
VERTEX
  5
37B
  8
0
 62
     0
 10
6.299998
 20
16.0
 30
0.0
  0
SEQEND
  5
3AB
  8
0
 62
     0
  0
LINE
  5
BA
  8
0
 62
     0
 10
5.699998
 20
26.1
 30
0.0
 11
5.699998
 21
26.094987
 31
0.0
  0
LINE
  5
BB
  8
0
 62
     0
 10
5.699998
 20
15.005013
 30
0.0
 11
5.699998
 21
15.0
 31
0.0
  0
POLYLINE
  5
BC
  8
0
 62
     0
 66
     1
 10
0.0
 20
0.0
 30
0.0
  0
VERTEX
  5
37C
  8
0
 62
     0
 10
5.699998
 20
26.094987
 30
0.0
  0
VERTEX
  5
37D
  8
0
 62
     0
 10
5.699998
 20
26.1
 30
0.0
  0
SEQEND
  5
3AC
  8
0
 62
     0
  0
POLYLINE
  5
C0
  8
0
 62
     0
 66
     1
 10
0.0
 20
0.0
 30
0.0
  0
VERTEX
  5
37E
  8
0
 62
     0
 10
12.599998
 20
16.0
 30
0.0
  0
VERTEX
  5
37F
  8
0
 62
     0
 10
11.599998
 20
15.0
 30
0.0
  0
SEQEND
  5
3AD
  8
0
 62
     0
  0
LINE
  5
C4
  8
0
 62
     0
 10
12.599998
 20
19.0
 30
0.0
 11
12.599998
 21
16.0
 31
0.0
  0
POLYLINE
  5
C5
  8
0
 62
     0
 66
     1
 10
0.0
 20
0.0
 30
0.0
  0
VERTEX
  5
380
  8
0
 62
     0
 10
11.599998
 20
20.0
 30
0.0
  0
VERTEX
  5
381
  8
0
 62
     0
 10
12.599998
 20
19.0
 30
0.0
  0
SEQEND
  5
3AE
  8
0
 62
     0
  0
LINE
  5
C9
  8
0
 62
     0
 10
8.999998
 20
20.0
 30
0.0
 11
11.599998
 21
20.0
 31
0.0
  0
LINE
  5
CA
  8
0
 62
     0
 10
8.999998
 20
25.6
 30
0.0
 11
8.999998
 21
20.0
 31
0.0
  0
POLYLINE
  5
CB
  8
0
 62
     0
 66
     1
 10
0.0
 20
0.0
 30
0.0
  0
VERTEX
  5
382
  8
0
 62
     0
 10
8.499998
 20
26.1
 30
0.0
  0
VERTEX
  5
383
  8
0
 62
     0
 10
8.999998
 20
25.6
 30
0.0
  0
SEQEND
  5
3AF
  8
0
 62
     0
  0
POLYLINE
  5
CF
  8
0
 62
     0
 66
     1
 10
0.0
 20
0.0
 30
0.0
  0
VERTEX
  5
384
  8
0
 62
     0
 10
6.299998
 20
25.1
 30
0.0
  0
VERTEX
  5
385
  8
0
 62
     0
 10
6.299998
 20
26.094987
 30
0.0
  0
SEQEND
  5
3B0
  8
0
 62
     0
  0
LINE
  5
D3
  8
0
 62
     0
 10
6.299998
 20
26.094987
 30
0.0
 11
5.699998
 21
26.094987
 31
0.0
  0
LINE
  5
D4
  8
0
 62
     0
 10
6.299998
 20
16.0
 30
0.0
 11
6.299998
 21
25.1
 31
0.0
  0
POLYLINE
  5
D5
  8
0
 62
     0
 66
     1
 10
0.0
 20
0.0
 30
0.0
  0
VERTEX
  5
386
  8
0
 62
     0
 10
11.149998
 20
17.5
 30
0.0
  0
VERTEX
  5
387
  8
0
 62
     0
 10
12.099998
 20
17.5
 30
0.0
  0
SEQEND
  5
3B1
  8
0
 62
     0
  0
LINE
  5
D9
  8
0
 62
     0
 10
3.999998
 20
16.0
 30
0.0
 11
6.299998
 21
16.0
 31
0.0
  0
LINE
  5
DA
  8
0
 62
     0
 10
6.299998
 20
25.1
 30
0.0
 11
3.999998
 21
25.1
 31
0.0
  0
ENDBLK
  5
DB
  8
0
  0
BLOCK
  8
0
  2
SHAPE2DVIEW003
 70
     0
 10
0.0
 20
0.0
 30
0.0
  3
SHAPE2DVIEW003
  1

  0
LINE
  5
DE
  8
0
 62
     0
 10
116.299997
 20
92.5
 30
0.0
 11
6.299997
 21
92.5
 31
0.0
  0
LINE
  5
DF
  8
0
 62
     0
 10
6.299997
 20
92.5
 30
0.0
 11
6.299997
 21
12.5
 31
0.0
  0
LINE
  5
E0
  8
0
 62
     0
 10
6.299997
 20
12.5
 30
0.0
 11
116.299997
 21
12.5
 31
0.0
  0
LINE
  5
E1
  8
0
 62
     0
 10
116.299997
 20
12.5
 30
0.0
 11
116.299997
 21
92.5
 31
0.0
  0
POLYLINE
  5
E2
  8
0
 62
     0
 66
     1
 10
0.0
 20
0.0
 30
0.0
  0
VERTEX
  5
388
  8
0
 62
     0
 10
10.099997
 20
85.75
 30
0.0
  0
VERTEX
  5
389
  8
0
 62
     0
 10
8.584453
 20
88.375
 30
0.0
  0
VERTEX
  5
38A
  8
0
 62
     0
 10
11.615542
 20
88.375
 30
0.0
  0
VERTEX
  5
38B
  8
0
 62
     0
 10
10.099997
 20
85.75
 30
0.0
  0
SEQEND
  5
3B2
  8
0
 62
     0
  0
POLYLINE
  5
E8
  8
0
 62
     0
 66
     1
 10
0.0
 20
0.0
 30
0.0
  0
VERTEX
  5
38C
  8
0
 62
     0
 10
10.099997
 20
15.75
 30
0.0
  0
VERTEX
  5
38D
  8
0
 62
     0
 10
8.584453
 20
18.375
 30
0.0
  0
VERTEX
  5
38E
  8
0
 62
     0
 10
11.615542
 20
18.375
 30
0.0
  0
VERTEX
  5
38F
  8
0
 62
     0
 10
10.099997
 20
15.75
 30
0.0
  0
SEQEND
  5
3B3
  8
0
 62
     0
  0
ENDBLK
  5
EE
  8
0
  0
ENDSEC
  0
SECTION
  2
ENTITIES
  0
INSERT
  5
EF
  8
0
 62
     0
  2
SHAPE2DVIEW001
 10
0.0
 20
0.0
 30
0.0
  0
INSERT
  5
F0
  8
0
 62
     0
  2
SHAPE2DVIEW002
 10
0.0
 20
0.0
 30
0.0
  0
INSERT
  5
F1
  8
0
 62
     0
  2
SHAPE2DVIEW003
 10
0.0
 20
0.0
 30
0.0
  0
LINE
  5
13A
  8
0
  6
BYBLOCK
 62
     1
 10
11.099998
 20
89.232051
 30
0.0
 11
9.599998
 21
86.633975
 31
0.0
  0
LINE
  5
13B
  8
0
  6
BYBLOCK
 62
     1
 10
11.099998
 20
85.767949
 30
0.0
 11
9.599998
 21
88.366025
 31
0.0
  0
LINE
  5
13C
  8
0
  6
BYBLOCK
 62
     1
 10
11.615542
 20
88.375
 30
0.0
 11
9.342225
 21
87.0625
 31
0.0
  0
CIRCLE
  5
13D
  8
0
  6
BYBLOCK
 10
10.099998
 20
87.5
 30
0.0
 40
2.5
  0
LINE
  5
163
  8
0
  6
BYBLOCK
 62
     1
 10
9.099998
 20
19.232051
 30
0.0
 11
10.599998
 21
16.633975
 31
0.0
  0
LINE
  5
164
  8
0
  6
BYBLOCK
 62
     1
 10
9.099998
 20
15.767949
 30
0.0
 11
10.599998
 21
18.366025
 31
0.0
  0
LINE
  5
165
  8
0
  6
BYBLOCK
 62
     1
 10
8.584454
 20
18.375
 30
0.0
 11
10.85777
 21
17.0625
 31
0.0
  0
CIRCLE
  5
166
  8
0
  6
BYBLOCK
 10
10.099998
 20
17.5
 30
0.0
 40
2.5
  0
POLYLINE
  5
209
  8
0
  6
BYBLOCK
 66
     1
 10
0.0
 20
0.0
 30
0.0
 70
     1
  0
VERTEX
  5
33E
  8
0
  6
BYBLOCK
 10
3.999998
 20
92.5
 30
0.0
  0
VERTEX
  5
33F
  8
0
  6
BYBLOCK
 10
1.999998
 20
92.5
 30
0.0
  0
VERTEX
  5
340
  8
0
  6
BYBLOCK
 10
1.999998
 20
12.5
 30
0.0
  0
VERTEX
  5
341
  8
0
  6
BYBLOCK
 10
3.999998
 20
12.5
 30
0.0
  0
SEQEND
  5
390
  8
0
  6
BYBLOCK
  0
ENDSEC
  0
EOF
